{"title":"Jason.Bourne.2016.HDRip.Cropped","uid":15726491,"size":1046771676,"categoryP":"video","categoryS":"hd___movies","magnet":"?xt=urn:btih:aa2edae0e312e0a218361e7c05008d80710a3e95&amp;dn=Jason.Bourne.2016.HDRip.Cropped&amp;tr=udp%3A%2F%2Ftracker.leechers-paradise.org%3A6969&amp;tr=udp%3A%2F%2Fzer0day.ch%3A1337&amp;tr=udp%3A%2F%2Fopen.demonii.com%3A1337&amp;tr=udp%3A%2F%2Ftracker.coppersurfer.tk%3A6969&amp;tr=udp%3A%2F%2Fexodus.desync.com%3A6969","seeders":0,"leechers":2,"uploader":"xxTheOnexx","files":11,"time":1472724952,"description":"http://postimg.org/gallery/1m1wayfi4/\r\n\r\n\r\n\r\nDid my best cropping it, then ran it thru a couple of filters to\r\ngive it some POP, came out pretty nice, thanks again for the extratorrent\r\nteam for the original upload, all respect to them. \r\n\r\n\r\n\r\nFormat                    : MPEG-4\r\nFormat profile            : Base Media / Version 2\r\nCodec ID                  : mp42\r\nFile size                 : 987 MiB\r\nDuration                  : 2h 2mn\r\nOverall bit rate mode     : Variable\r\nOverall bit rate          : 1 128 Kbps\r\nEncoded date              : UTC 2016-08-31 09:43:24\r\nTagged date               : UTC 2016-08-31 09:44:36\r\n©TIM                      : 00;00;00;00\r\n©TSC                      : 2997\r\n©TSZ                      : 100\r\n\r\nVideo\r\n-----\r\nID                        : 1\r\nFormat                    : AVC\r\nFormat/Info               : Advanced Video Codec\r\nFormat profile            :   \r\nFormat settings, CABAC    : Yes\r\nFormat settings, ReFrames : 3 frames\r\nFormat settings, GOP      : M=3, N=33\r\nCodec ID                  : avc1\r\nCodec ID/Info             : Advanced Video Coding\r\nDuration                  : 2h 2mn\r\nSource duration           : 2h 2mn\r\nBit rate                  : 994 Kbps\r\nWidth                     : 720 pixels\r\nHeight                    : 304 pixels\r\nDisplay aspect ratio      : 2.35:1\r\nFrame rate mode           : Variable\r\nFrame rate                : 29.970 fps\r\nMinimum frame rate        : 29.970 fps\r\nMaximum frame rate        : 30.000 fps\r\nStandard                  : NTSC\r\nColor space               : YUV\r\nChroma subsampling        : 4:2:0\r\nBit depth                 : 8 bits\r\nScan type                 : Progressive\r\nBits/(Pixel*Frame)        : 0.152\r\nStream size               : 870 MiB (88%)\r\nSource stream size        : 870 MiB (88%)\r\nLanguage                  : English\r\nColor primaries           : BT.601 NTSC\r\nTransfer characteristics  : BT.601\r\nMatrix coefficients       : BT.601\r\nmdhd_Duration             : 7340033\r\n\r\nAudio\r\n-----\r\nID                        : 2\r\nFormat                    : AAC\r\nFormat/Info               : Advanced Audio Codec\r\nFormat profile            : LC\r\nCodec ID                  : 40\r\nDuration                  : 2h 2mn\r\nSource duration           : 2h 2mn\r\nBit rate mode             : Variable\r\nBit rate                  : 125 Kbps\r\nMaximum bit rate          : 204 Kbps\r\nChannel(s)                : 2 channels\r\nChannel positions         : Front: L R\r\nSampling rate             : 48.0 KHz\r\nCompression mode          : Lossy\r\nStream size               : 110 MiB (11%)\r\nSource stream size        : 110 MiB (11%)\r\nLanguage                  : English","torrent":{"xt":"urn:btih:aa2edae0e312e0a218361e7c05008d80710a3e95","amp;dn":"Jason.Bourne.2016.HDRip.Cropped","amp;tr":["udp%3A%2F%2Ftracker.leechers-paradise.org%3A6969","udp%3A%2F%2Fzer0day.ch%3A1337","udp%3A%2F%2Fopen.demonii.com%3A1337","udp%3A%2F%2Ftracker.coppersurfer.tk%3A6969","udp%3A%2F%2Fexodus.desync.com%3A6969"],"infoHash":"aa2edae0e312e0a218361e7c05008d80710a3e95","infoHashBuffer":{"type":"Buffer","data":[170,46,218,224,227,18,224,162,24,54,30,124,5,0,141,128,113,10,62,149]},"announce":[],"urlList":[]}}